<?xml version="1.0" encoding="UTF-8" standalone="no"?>
<svg
   xmlns:dc="http://purl.org/dc/elements/1.1/"
   xmlns:cc="http://creativecommons.org/ns#"
   xmlns:rdf="http://www.w3.org/1999/02/22-rdf-syntax-ns#"
   xmlns:svg="http://www.w3.org/2000/svg"
   xmlns="http://www.w3.org/2000/svg"
   xmlns:sodipodi="http://sodipodi.sourceforge.net/DTD/sodipodi-0.dtd"
   xmlns:inkscape="http://www.inkscape.org/namespaces/inkscape"
   width="275.80762mm"
   height="131.94601mm"
   viewBox="0 0 275.80762 131.94601"
   version="1.1"
   id="svg871"
   inkscape:version="1.0.1 (3bc2e813f5, 2020-09-07)"
   sodipodi:docname="Dune Frank Herbert logo.svg">
  <defs
     id="defs865" />
  <sodipodi:namedview
     id="base"
     pagecolor="#ffffff"
     bordercolor="#666666"
     borderopacity="1.0"
     inkscape:pageopacity="0.0"
     inkscape:pageshadow="2"
     inkscape:zoom="0.33557348"
     inkscape:cx="427.5267"
     inkscape:cy="546.8248"
     inkscape:document-units="mm"
     inkscape:current-layer="layer1"
     inkscape:document-rotation="0"
     showgrid="false"
     inkscape:window-width="1366"
     inkscape:window-height="705"
     inkscape:window-x="-8"
     inkscape:window-y="-8"
     inkscape:window-maximized="1" />
  <metadata
     id="metadata868">
    <rdf:RDF>
      <cc:Work
         rdf:about="">
        <dc:format>image/svg+xml</dc:format>
        <dc:type
           rdf:resource="http://purl.org/dc/dcmitype/StillImage" />
        <dc:title></dc:title>
      </cc:Work>
    </rdf:RDF>
  </metadata>
  <g
     inkscape:label="Layer 1"
     inkscape:groupmode="layer"
     id="layer1"
     transform="translate(-8.3093986,-26.268969)">
    <path
       style="fill:#000000;stroke-width:0.450691"
       d="m 192.08645,157.72492 c -1.8881,-0.50249 -4.42663,-2.77371 -5.55048,-4.96603 -1.30954,-2.55455 -2.45711,-6.36938 -2.46865,-8.20645 -0.0147,-2.33658 1.27221,-5.22171 2.3291,-5.22171 1.09627,0 1.03699,0.77007 -0.0867,1.12672 -1.30686,0.41478 -1.19617,2.36382 0.16958,2.98609 1.53338,0.69866 3.32026,-0.55901 3.70454,-2.60739 0.81229,-4.3299 -0.68833,-7.33268 -3.67531,-7.35439 -2.8508,-0.0207 -2.91369,0.18735 -3.06265,10.13353 -0.14185,9.47149 0.0966,11.84233 1.25656,12.49145 0.38825,0.21728 0.7059,0.5433 0.7059,0.72451 0,0.40775 -9.2874,0.40378 -9.69533,-0.004 -0.16224,-0.16225 0.12753,-0.71752 0.64395,-1.23394 0.89887,-0.89888 0.93894,-1.39679 0.93894,-11.66939 0,-11.542 -0.0771,-11.95251 -2.34863,-12.49994 l -1.2219,-0.29448 -0.13073,4.21336 -0.13072,4.21336 -0.7491,-1.58214 c -1.54946,-3.27263 -3.88057,-4.95297 -6.87104,-4.95297 -2.30181,0 -2.97,1.09799 -2.97,4.88042 0,1.77761 0.11701,3.23202 0.26001,3.23202 0.14301,0 0.86845,-0.60843 1.61209,-1.35207 0.84646,-0.84646 1.81535,-1.35208 2.59092,-1.35208 3.56904,0 4.83318,6.40128 1.72274,8.72356 -1.00638,0.75137 -1.38769,0.81295 -2.34187,0.37821 -1.25296,-0.57089 -1.4336,-1.4324 -0.58519,-2.79092 0.46087,-0.73797 0.41801,-1.02245 -0.25371,-1.68397 -0.7735,-0.76178 -0.85547,-0.74164 -1.90662,0.46853 -1.00487,1.15689 -1.09837,1.64425 -1.09837,5.72513 v 4.46059 l 1.59565,0.44059 c 2.07279,0.57232 4.69058,0.15853 5.89451,-0.93174 0.52532,-0.47574 1.43797,-1.80589 2.02811,-2.9559 l 1.07297,-2.09094 0.13035,4.1997 c 0.0717,2.30983 0.0543,4.27575 -0.0387,4.3687 -0.32192,0.32191 -19.24672,0.39073 -19.24639,0.07 1.7e-4,-0.17719 0.38262,-0.52676 0.84986,-0.77683 0.46725,-0.25006 0.96246,-0.91633 1.10048,-1.4806 0.2101,-0.85898 0.47471,-16.7987 0.34382,-20.71149 -0.0878,-2.62567 -2.88019,-3.51396 -4.51458,-1.43616 -0.8841,1.12397 -0.93408,1.74773 -0.93408,11.65719 0,9.90947 0.05,10.53323 0.93409,11.65719 l 0.93409,1.18751 -1.04676,0.0516 c -1.22278,0.0603 -6.39882,0.0402 -8.03248,-0.0311 -1.02175,-0.0446 -1.0549,-0.10378 -0.35574,-0.63497 1.14137,-0.86714 1.70812,-2.73228 1.7053,-5.61191 -0.005,-4.97774 -1.07857,-6.84368 -3.93794,-6.84368 -1.8457,0 -2.75551,0.83642 -3.43358,3.15664 -0.91579,3.13367 -0.52716,9.01202 0.59582,9.01202 0.20465,0 0.47019,0.25564 0.5901,0.56809 0.16694,0.43505 -0.92999,0.57121 -4.68405,0.58143 -2.69611,0.007 -4.90203,-0.0669 -4.90203,-0.16502 0,-0.0981 0.50703,-0.78091 1.12673,-1.51738 l 1.12673,-1.33904 -0.0143,-10.444 c -0.0149,-10.86267 -0.0812,-11.2701 -2.01378,-12.37843 -0.71489,-0.40999 0.25121,-0.51978 4.66951,-0.53065 5.53023,-0.0136 5.56323,-0.007 4.52017,0.83712 -0.95661,0.77462 -1.06659,1.27924 -1.22778,5.63364 -0.11459,3.09579 -0.0133,4.78281 0.28721,4.78281 0.25533,0 0.53185,-0.15581 0.61448,-0.34625 0.0826,-0.19044 0.71037,-0.77926 1.39499,-1.30848 1.38237,-1.06861 2.57153,-0.95848 3.7535,0.34759 1.399,1.54586 1.62531,0.9762 1.46632,-3.69095 -0.14098,-4.13868 -0.25053,-4.62476 -1.21889,-5.40829 -1.06086,-0.85837 -1.04697,-0.86103 4.73226,-0.90548 3.18793,-0.0245 14.01009,-0.0171 24.04923,0.0166 17.1598,0.0575 18.36299,0.11428 20.08955,0.94798 3.55662,1.71738 4.87243,6.85575 2.70337,10.55697 -0.90971,1.55231 -2.15678,2.53443 -4.67801,3.68417 -0.50021,0.2281 1.58617,4.82686 2.71253,5.97893 1.74593,1.78578 3.18626,2.16091 4.6399,1.20845 l 1.12344,-0.73611 v -9.46998 c 0,-7.95847 -0.11617,-9.64729 -0.72787,-10.58085 -0.40033,-0.61098 -1.04256,-1.11088 -1.42719,-1.11088 -0.38462,0 -0.5626,-0.13671 -0.39549,-0.30382 0.48664,-0.48664 13.33409,-0.59793 16.25271,-0.14079 3.07938,0.48232 4.38203,1.49026 5.22429,4.04232 0.47756,1.44701 0.47572,2.0204 -0.0102,3.19357 -0.72845,1.75864 -2.13879,3.12393 -3.22702,3.12393 -1.42897,0 -0.87015,1.10031 0.94608,1.8628 2.26238,0.9498 3.30431,2.58837 3.55303,5.5876 0.26133,3.1512 -1.07276,6.0529 -3.42618,7.45213 -1.55775,0.92616 -2.20905,0.98881 -10.20184,0.98132 -6.14642,-0.006 -9.0342,0.16712 -10.30988,0.61721 -0.97462,0.34386 -1.79724,0.60424 -1.82805,0.57863 -0.0308,-0.0256 -0.80284,-0.24534 -1.71564,-0.48826 z m 6.84259,-3.34923 c 0,-0.37182 -0.20281,-0.5507 -0.45069,-0.3975 -0.24788,0.1532 -0.45069,0.58276 -0.45069,0.95458 0,0.37182 0.20281,0.55069 0.45069,0.39749 0.24788,-0.1532 0.45069,-0.58275 0.45069,-0.95457 z m 11.60816,-0.2014 c 1.78378,-0.62184 2.48815,-2.35702 2.514,-6.19316 0.022,-3.26939 -0.54992,-4.82474 -1.936,-5.26466 -1.06477,-0.33795 -2.72164,0.46208 -2.72164,1.31415 0,0.75214 1.22292,1.28199 1.58958,0.68872 0.57852,-0.93608 1.11456,-0.3476 1.11456,1.22359 0,1.924 -1.05339,3.303 -2.52309,3.303 -1.43565,0 -2.43451,-1.63905 -2.43451,-3.99483 0,-1.72416 0.21696,-2.1796 1.61613,-3.39258 3.98659,-3.45609 4.24286,-3.77849 4.24286,-5.33764 0,-2.10614 -1.38378,-3.49983 -3.47493,-3.49983 -3.19889,0 -3.28544,0.29214 -3.28544,11.08939 0,8.66512 0.0766,9.64225 0.78871,10.057 1.03227,0.60124 2.79701,0.60392 4.50977,0.007 z m 46.06871,3.44783 c -2.15554,-0.67031 -2.70281,-1.0802 -4.56434,-3.41858 -3.03192,-3.80861 -4.4346,-10.47669 -2.84889,-13.54312 0.40919,-0.79129 1.04791,-1.32969 1.57742,-1.32969 1.15828,0 1.15011,0.72818 -0.0116,1.03197 -1.06841,0.27939 -1.19546,1.76441 -0.23328,2.72659 0.86912,0.86912 2.28056,0.4766 3.39899,-0.94526 1.63784,-2.08218 0.99999,-6.8611 -1.11148,-8.32737 -0.26225,-0.18212 -1.30621,-0.33423 -2.31991,-0.33802 -2.70719,-0.0101 -2.86532,0.62142 -2.86867,11.45722 -0.003,9.183 0.002,9.22478 1.12596,10.56099 l 1.1288,1.34151 -3.7291,0.14733 c -7.34216,0.29009 -26.48899,-0.1028 -26.48899,-0.54354 0,-0.23972 0.28437,-0.43585 0.63194,-0.43585 1.27347,0 1.62151,-2.77588 1.62151,-12.93244 0,-10.04653 -0.005,-10.09884 -1.07893,-11.17271 -0.59341,-0.59341 -1.00273,-1.15512 -0.90962,-1.24824 0.0931,-0.0931 7.97936,-0.12175 17.52498,-0.0636 17.91455,0.10906 19.64857,0.27241 21.21026,1.99806 1.06,1.17128 1.65695,1.11953 1.49555,-0.12965 -0.27045,-2.09319 -0.0329,-2.14078 10.68435,-2.14078 h 10.11396 v 4.16222 4.16222 l -0.93141,-1.79609 c -1.79042,-3.45258 -4.7429,-4.95214 -5.81311,-2.95245 -0.62016,1.15878 -0.62418,19.62476 -0.005,20.7826 0.25411,0.47481 1.01465,1.1632 1.69009,1.52975 1.13481,0.61583 0.75544,0.66782 -4.99554,0.68449 -4.03869,0.0117 -6.12581,-0.14018 -5.94505,-0.43265 0.1532,-0.24788 0.54618,-0.45069 0.8733,-0.45069 1.14499,0 1.55437,-2.55063 1.84459,-11.49263 0.34398,-10.59819 0.12182,-11.76054 -2.16407,-11.32282 -1.70687,0.32684 -3.80715,2.45259 -4.17039,4.22096 -0.95532,4.65089 -2.22362,6.74336 -4.71209,7.77412 -0.7555,0.31293 -1.36122,0.90294 -1.36122,1.32588 0,2.09808 3.763,7.24103 5.29813,7.24103 0.34106,0 1.0124,-0.20994 1.49186,-0.46654 1.17452,-0.62859 1.13632,0.0536 -0.12579,2.24659 -1.20795,2.09886 -3.01379,2.80754 -5.32373,2.08923 z m -15.96745,-2.27137 1.10624,-1.10624 v -10.13983 c 0,-10.2631 -0.24744,-12.08833 -1.7151,-12.65152 -1.08979,-0.4182 -1.42426,0.62056 -1.44813,4.49738 l -0.0222,3.60553 -0.77342,-1.58894 c -1.68258,-3.45672 -3.6677,-4.94608 -6.59248,-4.94608 -2.46148,0 -3.42012,1.3428 -3.42012,4.79064 0,1.54985 0.17177,2.92407 0.38172,3.05383 0.20995,0.12976 0.95773,-0.3653 1.66174,-1.10013 2.50709,-2.61684 5.58495,-1.30956 5.94128,2.52348 0.26914,2.89509 -0.37059,4.47491 -2.04896,5.05999 -2.23803,0.78018 -4.2324,-1.21822 -2.58239,-2.58761 0.89317,-0.74126 0.37568,-1.82499 -0.87146,-1.82499 -1.60335,0 -2.48193,2.37366 -2.48193,6.70542 0,3.37453 0.0812,3.6929 1.11469,4.37007 0.84367,0.55279 1.65324,0.6563 3.32973,0.42573 2.49464,-0.34311 4.16294,-1.74122 5.50255,-4.61141 l 0.79665,-1.70687 0.0365,4.1689 c 0.0225,2.57637 0.21647,4.16889 0.50766,4.16889 0.25914,0 0.96898,-0.49781 1.57742,-1.10624 z m -195.282435,1.13833 c -1.053491,-0.7644 -1.915437,-1.55311 -1.915437,-1.7527 0,-0.19958 -0.429297,-0.82368 -0.953993,-1.38687 -1.23038,-1.32066 -2.510039,-4.84226 -2.903305,-7.98986 -0.380125,-3.04242 0.713618,-6.02892 2.207964,-6.02892 0.901048,0 0.89979,0.0169 -0.06845,0.91894 -1.577279,1.46945 -0.992668,3.13728 1.099691,3.13728 2.213085,0 3.818595,-3.77713 2.903615,-6.83106 -0.87815,-2.931 -4.012246,-4.45313 -6.070381,-2.94819 -0.713688,0.52186 -0.829214,1.68745 -1.045986,10.55327 l -0.243687,9.96661 1.212506,1.21251 c 0.666878,0.66687 1.120287,1.30472 1.007575,1.41743 -0.238797,0.2388 -10.666713,0.45223 -10.666458,0.21831 9.4e-5,-0.0865 0.608604,-0.72556 1.352245,-1.42022 l 1.352073,-1.26303 V 143.712 c 0,-8.85514 -0.110245,-10.67208 -0.676036,-11.14164 -0.581901,-0.48294 -0.687622,-0.28666 -0.759235,1.40956 -0.04576,1.08384 -0.104272,2.46335 -0.130029,3.06558 -0.06291,1.47095 -0.962743,1.69616 -1.306391,0.32696 -0.151312,-0.60288 -0.993817,-1.72717 -1.872232,-2.49843 -1.392255,-1.22242 -1.930405,-1.40229 -4.195444,-1.40229 -1.42908,0 -2.8417,0.24337 -3.139156,0.54083 -0.58997,0.58997 -0.774635,7.12092 -0.201348,7.12092 0.186716,0 0.913746,-0.60843 1.615623,-1.35207 1.629955,-1.72694 3.136865,-1.73774 4.839932,-0.0347 1.096856,1.09685 1.317405,1.68634 1.317405,3.5212 0,1.82625 -0.216557,2.41127 -1.264062,3.41485 -1.53471,1.47034 -2.515512,1.53304 -3.435472,0.21962 -0.586256,-0.837 -0.601142,-1.13536 -0.09556,-1.91544 0.796276,-1.22861 0.455297,-2.05073 -0.850544,-2.05073 -1.957075,0 -2.4668,1.48837 -2.4668,7.20292 0,4.7115 0.08462,5.25245 0.901382,5.76253 1.813432,1.1325 0.91078,1.45666 -4.056221,1.45666 -4.932083,0 -5.756551,-0.28794 -4.120876,-1.43919 0.4602,-0.3239 0.961383,-0.99454 1.11374,-1.4903 0.152357,-0.49576 0.308737,-5.16041 0.347511,-10.3659 0.07239,-9.71805 -0.17103,-11.47957 -1.752332,-12.68096 -0.698369,-0.53059 -0.664861,-0.58808 0.355737,-0.61042 18.117307,-0.39642 31.235763,-0.39443 33.114343,0.005 3.853141,0.81935 6.095789,3.59337 6.095789,7.54014 0,2.83576 -1.687329,5.54833 -4.1185,6.62097 -0.957267,0.42234 -1.736031,1.00674 -1.730587,1.29865 0.02273,1.21901 1.928235,4.62744 3.243456,5.80167 2.643056,2.35972 3.104888,1.82567 5.337649,-6.17229 0.553597,-1.98304 1.375721,-4.74597 1.826944,-6.13985 1.425297,-4.40291 1.507138,-5.8693 0.405721,-7.26952 -0.535637,-0.68095 -1.41549,-1.2412 -1.955229,-1.245 -0.798828,-0.006 -0.85561,-0.0881 -0.305307,-0.44379 0.84204,-0.54417 13.517679,-0.58154 14.368994,-0.0424 0.48941,0.30996 0.417192,0.45981 -0.336972,0.69917 -1.382315,0.43873 -1.668117,2.21962 -0.712769,4.44138 5.11974,11.90649 5.993314,14.96527 5.323686,18.64067 l -0.396428,2.17589 -3.940307,0.13022 c -3.986197,0.13174 -4.676146,-0.12989 -3.038925,-1.15235 2.416804,-1.50932 -0.03155,-7.1995 -3.551573,-8.25412 -2.310184,-0.69215 -3.890596,-0.25896 -5.505386,1.50901 -1.056321,1.15652 -1.308938,1.84241 -1.308938,3.55392 0,2.16551 0.798999,3.53728 2.060303,3.53728 0.354113,0 0.643844,0.18134 0.643844,0.40297 0,0.22164 -1.571785,0.52261 -3.492856,0.66882 -1.921072,0.14622 -4.405507,0.38621 -5.520967,0.53333 -1.777415,0.23442 -2.264878,0.0957 -3.943548,-1.12233 z M 66.887548,146.1977 c -0.847178,-2.79922 -4.189364,-7.96642 -5.70356,-8.818 -1.003504,-0.56438 -1.847379,0.40282 -2.416813,2.76999 -0.279235,1.1608 -0.62062,2.56686 -0.758626,3.12459 -0.286234,1.15675 0.373348,1.34159 1.20623,0.33802 1.086264,-1.30887 2.606689,-0.77515 5.04875,1.77228 2.488338,2.5957 3.233389,2.82658 2.624019,0.81312 z m 9.791513,10.80207 c -1.673191,-0.0733 -3.042165,-0.32681 -3.042165,-0.56336 0,-0.23655 0.299007,-0.4301 0.664463,-0.4301 0.365457,0 0.97389,-0.59836 1.352074,-1.32969 0.54941,-1.06244 0.68761,-3.14947 0.68761,-10.38386 0,-8.13922 -0.09032,-9.2312 -0.893824,-10.8062 -0.491605,-0.96362 -1.305792,-1.88279 -1.809309,-2.0426 -2.1016,-0.66702 -0.05883,-1.12705 5.004709,-1.12705 5.115043,0 5.456149,0.0573 6.39575,1.07429 1.166424,1.2625 3.892552,7.55842 5.486881,12.67179 l 1.12419,3.60553 -0.105123,-7.13604 -0.10512,-7.13604 -1.428429,-1.27562 c -0.785641,-0.70159 -1.309569,-1.39448 -1.164289,-1.53976 0.370617,-0.37062 18.374391,-0.33178 18.746611,0.0404 0.16752,0.16753 -0.0829,0.72526 -0.55654,1.2394 -0.71616,0.77746 -0.87924,1.73142 -0.96878,5.66708 -0.14673,6.44902 -0.13501,6.54777 0.69493,5.85899 0.37182,-0.30859 0.68002,-0.78974 0.6849,-1.06924 0.005,-0.2795 1.12034,-1.87739 2.4788,-3.55086 1.35846,-1.67347 2.46994,-3.15834 2.46994,-3.2997 0,-0.14137 0.30421,-0.56125 0.67603,-0.93307 0.91693,-0.91692 0.8496,-1.82394 -0.20225,-2.72457 -0.48307,-0.4136 -0.77531,-0.91865 -0.64944,-1.12231 0.26757,-0.43294 7.5498,-0.50767 7.97562,-0.0819 0.15865,0.15864 -0.3023,0.61497 -1.02432,1.01405 -1.24518,0.68825 -6.31711,6.62484 -6.32244,7.40029 -0.001,0.20074 1.00569,1.43102 2.23793,2.73393 4.02778,4.25878 5.75171,10.05111 4.04072,13.57664 -0.57967,1.19444 -0.94466,1.38308 -3.13065,1.61799 -1.36096,0.14625 -2.52881,0.22712 -2.59521,0.17972 -0.0664,-0.0474 0.18586,-0.67408 0.56059,-1.39263 0.85419,-1.63795 0.85738,-2.38619 0.0183,-4.29359 -0.79984,-1.81822 -1.78782,-2.96461 -3.76233,-4.36561 -1.8695,-1.32648 -2.6859,-1.14934 -3.76879,0.81772 -1.12407,2.04187 -0.97865,7.05629 0.22416,7.72941 0.42045,0.2353 0.76443,0.67126 0.76438,0.96879 -7e-5,0.38588 -1.42132,0.55116 -4.95761,0.57652 -2.726629,0.0196 -4.95751,-0.10781 -4.95751,-0.28304 0,-0.17523 0.456325,-0.62132 1.014055,-0.99131 0.998547,-0.66241 1.016133,-0.83968 1.149786,-11.59151 0.117369,-9.44187 0.03736,-11.06897 -0.591587,-12.02884 -0.926954,-1.41471 -2.73227,-1.27706 -3.888311,0.29648 -0.739169,1.00611 -0.840431,2.26504 -0.945955,11.76041 -0.09509,8.55631 0.0045,10.78159 0.509416,11.39084 0.345175,0.41644 0.49375,0.891 0.330172,1.05458 -0.308404,0.3084 -8.007034,0.21816 -8.322756,-0.0976 -0.09829,-0.0983 0.174273,-0.5317 0.605701,-0.96313 2.091874,-2.09188 -0.849165,-10.91051 -5.175512,-15.51865 -3.404381,-3.62613 -3.61402,-3.25404 -3.61402,6.41468 0,8.06437 0.0032,8.08853 1.136476,9.139 1.38172,1.28054 1.022163,1.42771 -3.051914,1.24924 z M 9.6387496,124.28948 c 0,-0.72236 26.5522404,-0.86738 139.7142604,-0.76307 5.82519,0.005 38.42706,0.0143 72.44861,0.02 39.88607,0.007 61.85736,0.16631 61.85736,0.44974 0,0.2846 -45.81745,0.43861 -129.97096,0.43687 -71.48403,-0.001 -133.13858,0.13055 -137.010116,0.29339 -6.320835,0.26584 -7.0391544,0.22126 -7.0391544,-0.4369 z M 114.64979,119.66225 c -5.33622,-0.9036 -8.6713,-1.75985 -11.00185,-2.82464 -3.15331,-1.44068 -7.476485,-4.71533 -7.476485,-5.66316 0,-0.35374 -0.269207,-0.80535 -0.598243,-1.00358 -0.73725,-0.44416 -2.214359,-3.21908 -3.310633,-6.2194 -0.766536,-2.09787 -0.823382,-4.322642 -0.823382,-32.224418 0,-16.484031 -0.179366,-30.477993 -0.398586,-31.097694 -0.575596,-1.627082 -2.95077,-4.831005 -3.817895,-5.150032 -0.407619,-0.149967 -1.248149,-0.570654 -1.867849,-0.934858 -0.619701,-0.364204 -1.785864,-0.66518 -2.591475,-0.668834 -1.450274,-0.0066 -1.988093,-0.61627 -0.901382,-1.021843 0.30985,-0.11564 9.030724,-0.252605 19.37972,-0.304368 16.07446,-0.0804 18.81636,-4e-5 18.81636,0.551467 0,0.425265 -0.70523,0.742243 -2.06649,0.928824 -2.84012,0.389282 -4.59758,1.784453 -5.99112,4.756081 l -1.18156,2.5196 v 29.745621 29.745624 l 1.04461,2.24945 c 3.69556,7.9579 15.00932,9.54857 20.97201,2.94858 4.08782,-4.52473 4.45937,-8.201138 4.26374,-42.188258 l -0.14027,-24.370871 -1.26921,-1.917274 c -1.29622,-1.958071 -4.06089,-3.619919 -6.05453,-3.639379 -0.59652,-0.0058 -1.01405,-0.288253 -1.01405,-0.685935 0,-0.593741 3.4436,-0.676037 28.28825,-0.676037 h 28.28825 l 1.5638,2.591475 c 2.27087,3.763185 3.98998,6.87577 4.79174,8.675806 0.38643,0.86758 1.29142,2.859138 2.01108,4.425684 0.71967,1.566545 1.30848,2.955572 1.30848,3.086726 0,0.131153 0.29515,0.877545 0.6559,1.658647 2.36714,5.125496 6.26566,18.065097 7.69247,25.532167 0.35524,1.859101 0.8531,4.088684 1.10637,4.954629 0.25325,0.865944 0.46047,2.145479 0.46047,2.843419 0,0.731215 0.19099,1.150935 0.45069,0.99043 0.63033,-0.389563 0.59731,-37.860548 -0.0374,-42.445035 -0.82859,-5.984904 -3.79385,-9.895336 -8.14352,-10.739282 -1.28538,-0.249394 -2.42114,-0.705719 -2.52392,-1.014055 -0.14775,-0.443262 6.21251,-0.563329 30.38502,-0.573599 16.81455,-0.0071 36.55482,-0.02787 43.86728,-0.04607 7.31247,-0.01819 13.75172,-0.01235 14.30945,0.01299 l 1.01405,0.04607 -0.007,16.337557 c -0.004,8.985656 -0.18393,16.617053 -0.40031,16.958663 -0.67279,1.062212 -1.39531,0.08892 -1.40088,-1.887106 -0.006,-2.161536 -1.46054,-8.438318 -2.4214,-10.449708 -0.35584,-0.744886 -1.12155,-2.347454 -1.7016,-3.561263 -1.40253,-2.934944 -5.02756,-6.624214 -8.06108,-8.203927 -2.31176,-1.203856 -2.79338,-1.280849 -8.0917,-1.293581 -6.55742,-0.01576 -7.9807,0.526833 -9.47409,3.611768 -0.79805,1.648552 -0.89181,2.795817 -0.89181,10.912508 0,9.022437 0.32427,10.944046 1.49407,8.853741 1.06576,-1.904414 4.63534,-5.216003 6.52187,-6.050504 2.87257,-1.270676 7.39572,-1.208967 9.7654,0.133228 7.56414,4.284367 9.00495,19.869031 2.43801,26.370968 -4.22022,4.178453 -10.12798,3.428516 -12.73704,-1.616846 -0.93556,-1.809173 -0.94853,-3.694302 -0.0254,-3.694302 1.27818,0 2.90901,-2.102087 2.90901,-3.749611 0,-3.919806 -3.57546,-5.158477 -6.71162,-2.325152 -2.96259,2.676524 -3.42894,5.315371 -3.42894,19.402707 0,10.713522 0.0761,11.892062 0.86227,13.354342 1.42617,2.65268 2.80917,3.17494 8.25459,3.11718 2.60985,-0.0277 5.47963,-0.25429 6.3773,-0.50357 7.41376,-2.05881 13.74667,-11.852375 14.79094,-22.873546 0.34644,-3.656255 1.27542,-3.784581 1.63138,-0.225346 0.48397,4.839297 0.38518,30.674622 -0.12092,31.620272 -0.46948,0.87722 -1.04396,0.89451 -30.8971,0.92961 -18.2113,0.0214 -30.41873,-0.13041 -30.41873,-0.37831 0,-0.48459 1.0937,-0.96121 2.20567,-0.96121 1.09335,0 4.19476,-1.55692 5.08001,-2.55019 0.40685,-0.45649 1.17348,-1.66906 1.70363,-2.69459 0.9607,-1.85838 0.96384,-1.97958 0.94286,-36.385464 -0.0209,-34.272213 -0.0279,-34.535092 -0.98007,-36.494828 -0.58647,-1.207116 -1.67122,-2.435752 -2.79232,-3.162685 -1.57234,-1.019523 -2.32104,-1.188731 -5.25982,-1.188731 -3.09673,0 -3.60314,0.129881 -5.26143,1.349403 -2.32316,1.708467 -3.53697,4.461457 -4.18034,9.481199 -0.32164,2.509574 -0.44766,14.545114 -0.36793,35.139902 0.13665,35.297964 9e-4,33.891784 3.48157,36.043014 0.97129,0.60029 1.66535,1.25424 1.54237,1.45324 -0.12299,0.19899 -7.19666,0.36181 -15.71926,0.36181 -14.21623,0 -18.08373,-0.29078 -14.75702,-1.10949 2.57085,-0.63269 4.84708,-2.37531 5.92693,-4.53748 0.99238,-1.98705 1.04353,-2.47743 0.81503,-7.81376 -0.19109,-4.462824 -0.55225,-6.814071 -1.67068,-10.876597 -0.78479,-2.850622 -1.70254,-5.791382 -2.03944,-6.535023 -0.33691,-0.74364 -1.15489,-2.670345 -1.81775,-4.281566 -6.3145,-15.348898 -17.5899,-28.97007 -21.08652,-25.473443 -0.68189,0.681887 -0.74891,3.063817 -0.73991,26.294345 0.009,24.277274 0.0531,25.639774 0.88128,27.464304 1.44657,3.18694 3.65947,4.57168 9.15513,5.72889 0.69181,0.14567 1.13616,0.46172 0.98746,0.70234 -0.36006,0.58259 -29.36346,0.59192 -29.72338,0.01 -0.14546,-0.23535 0.50171,-0.56699 1.43815,-0.73697 4.10274,-0.74471 6.7069,-3.16006 8.30287,-7.70088 0.84742,-2.41104 0.87315,-3.69695 0.70982,-35.464764 -0.18415,-35.815523 -0.1698,-35.613579 -2.70227,-38.039839 -1.16887,-1.119844 -1.59729,-1.232839 -4.67437,-1.232839 -3.24135,0 -3.44312,0.06218 -4.67485,1.440724 -0.70801,0.792398 -1.53261,2.212075 -1.83245,3.154838 -0.38749,1.218371 -0.64093,10.121412 -0.87629,30.783698 -0.21542,18.911252 -0.5143,30.007094 -0.8553,31.752412 -1.69715,8.68635 -8.17109,15.3342 -17.09734,17.55662 -2.67614,0.66629 -9.8676,1.20332 -11.77923,0.87962 z M 9.3007313,117.79768 c -1.6728558,-0.26859 -1.1478411,-0.8692 0.9682997,-1.10772 2.19088,-0.24694 5.612384,-2.29026 6.365934,-3.80173 0.261459,-0.52444 0.74237,-1.27523 1.068691,-1.66842 0.884618,-1.0659 1.357879,-8.51412 1.379963,-21.717983 l 0.01965,-11.745495 4.394239,0.0045 c 3.832318,0.0041 4.726502,-0.150752 6.992546,-1.208889 6.404558,-2.990747 10.28405,-9.245904 10.399697,-16.768215 0.04107,-2.671531 -0.175917,-4.159654 -0.837646,-5.744624 -0.970993,-2.325714 -1.776816,-2.897187 -1.273403,-0.903071 0.172087,0.68167 0.317784,2.760483 0.32377,4.619585 0.009,2.787318 -0.209053,3.836444 -1.243077,5.981521 -0.689678,1.430736 -1.765536,3.209307 -2.390795,3.952389 -3.860698,4.588176 -12.105481,5.630733 -17.139433,2.16728 -2.446638,-1.683328 -3.89907,-3.613223 -5.414759,-7.19476 -1.114141,-2.632691 -1.217906,-3.378311 -1.215934,-8.737306 0.0017,-4.505312 0.194974,-6.431693 0.836711,-8.337787 1.616148,-4.800302 3.452486,-7.810794 6.73911,-11.048091 5.467828,-5.385766 11.690439,-7.791472 21.217989,-8.203027 4.078268,-0.176167 5.688073,-0.03595 9.239169,0.804757 8.755901,2.07292 16.164548,6.690121 22.102683,13.774788 4.130774,4.92834 7.366809,13.446224 8.74043,23.006545 0.954767,6.64512 0.910734,11.287546 -0.174499,18.396362 -1.067777,6.994471 -2.064134,10.611115 -4.192162,15.216949 -5.313946,11.501342 -13.687581,18.178012 -24.792035,19.767782 -3.390917,0.48546 -39.528805,0.90991 -42.1151337,0.49465 z M 52.299143,107.52555 c 5.134486,-2.97005 7.154078,-9.074194 8.53363,-25.792648 1.42651,-17.287517 -0.596007,-32.582568 -5.136491,-38.84406 -1.380742,-1.904099 -3.716936,-4.033366 -4.443716,-4.050125 -0.28919,-0.0067 -0.595976,-0.222634 -0.681738,-0.479924 -0.08576,-0.257291 -1.531565,-0.96713 -3.212897,-1.57742 -10.281385,-3.731942 -21.494299,1.7314 -21.494299,10.47281 0,2.905144 0.547526,4.389821 1.96027,5.315487 2.684549,1.758984 5.062128,-0.934118 4.318753,-4.891885 -0.454061,-2.417445 -0.291077,-2.993442 0.845961,-2.989692 4.529295,0.01494 8.722682,4.473522 10.233063,10.880219 0.774252,3.2842 0.775931,3.62905 0.03621,7.435208 -0.426631,2.195203 -1.558515,6.323602 -2.515295,9.174224 -2.443811,7.28107 -2.695787,9.220948 -2.756449,21.220962 -0.05704,11.282814 0.0793,12.148954 2.216885,14.083434 2.431674,2.20064 8.330198,2.2218 12.096114,0.0434 z"
       id="path1448"
       sodipodi:nodetypes="ssssssssssscssscccsssssssssssscssscscssssssscssscsssscsscssscsssssssscssssscssssssssssscssssssssscsssssssssssscccsssssssscccsssssscssscccsscssssssssssssccccssscsssssssssssssccssccssssssssscsssscsssssssssssssssssssssssccsssssssccsssscsssssssssccssssssscssssssssscccssscsscssssssscsssssssssscsssssscssssscccsccscssscsssssssscssssscccssscsssscsssscssssssssssccscssssssssssssssssssssssssssssssssssssssssscscssscssssssssssccssssscccssscscsscsssssssssssssscsssssssssssss" />
  </g>
</svg>
