<?xml version="1.0" encoding="UTF-8" standalone="no"?>
<!-- Created with Inkscape (http://www.inkscape.org/) -->

<svg
   xmlns:dc="http://purl.org/dc/elements/1.1/"
   xmlns:cc="http://creativecommons.org/ns#"
   xmlns:rdf="http://www.w3.org/1999/02/22-rdf-syntax-ns#"
   xmlns:svg="http://www.w3.org/2000/svg"
   xmlns="http://www.w3.org/2000/svg"
   xmlns:xlink="http://www.w3.org/1999/xlink"
   xmlns:sodipodi="http://sodipodi.sourceforge.net/DTD/sodipodi-0.dtd"
   xmlns:inkscape="http://www.inkscape.org/namespaces/inkscape"
   width="256.09424"
   height="228.51453"
   id="svg3046"
   version="1.1"
   inkscape:version="0.48.2 r9819"
   sodipodi:docname="spaceship and the sun.svg">
  <defs
     id="defs3048">
    <linearGradient
       id="linearGradient4076">
      <stop
         style="stop-color:#c8ab37;stop-opacity:1;"
         offset="0"
         id="stop4078" />
      <stop
         style="stop-color:#d3bc60;stop-opacity:1;"
         offset="1"
         id="stop4080" />
    </linearGradient>
    <linearGradient
       inkscape:collect="always"
       xlink:href="#linearGradient4076"
       id="linearGradient5524"
       gradientUnits="userSpaceOnUse"
       x1="-20.478104"
       y1="312.36218"
       x2="80.478104"
       y2="312.36218" />
    <linearGradient
       inkscape:collect="always"
       xlink:href="#linearGradient4076"
       id="linearGradient5526"
       gradientUnits="userSpaceOnUse"
       x1="-20.435808"
       y1="312.36218"
       x2="80.435806"
       y2="312.36218" />
    <linearGradient
       inkscape:collect="always"
       xlink:href="#linearGradient4076"
       id="linearGradient5528"
       gradientUnits="userSpaceOnUse"
       x1="119.88889"
       y1="382.36218"
       x2="140.11111"
       y2="382.36218" />
    <linearGradient
       inkscape:collect="always"
       xlink:href="#linearGradient4076"
       id="linearGradient5530"
       gradientUnits="userSpaceOnUse"
       x1="742.67487"
       y1="649.07892"
       x2="915.86511"
       y2="649.07892" />
    <linearGradient
       inkscape:collect="always"
       xlink:href="#linearGradient4076"
       id="linearGradient5532"
       gradientUnits="userSpaceOnUse"
       x1="828.27002"
       y1="649.07892"
       x2="830.27002"
       y2="649.07892" />
    <linearGradient
       inkscape:collect="always"
       xlink:href="#linearGradient4076"
       id="linearGradient5534"
       gradientUnits="userSpaceOnUse"
       x1="814.19092"
       y1="649.07892"
       x2="844.34906"
       y2="649.07892" />
    <linearGradient
       inkscape:collect="always"
       xlink:href="#linearGradient4076"
       id="linearGradient5536"
       gradientUnits="userSpaceOnUse"
       x1="800.45844"
       y1="649.07892"
       x2="858.08154"
       y2="649.07892" />
    <linearGradient
       inkscape:collect="always"
       xlink:href="#linearGradient4076"
       id="linearGradient5538"
       gradientUnits="userSpaceOnUse"
       x1="787.41083"
       y1="649.07892"
       x2="871.12915"
       y2="649.07892" />
    <linearGradient
       inkscape:collect="always"
       xlink:href="#linearGradient4076"
       id="linearGradient5540"
       gradientUnits="userSpaceOnUse"
       x1="775.36932"
       y1="649.07892"
       x2="883.17065"
       y2="649.07892" />
    <linearGradient
       inkscape:collect="always"
       xlink:href="#linearGradient4076"
       id="linearGradient5542"
       gradientUnits="userSpaceOnUse"
       x1="764.63037"
       y1="649.07892"
       x2="893.90961"
       y2="649.07892" />
    <linearGradient
       inkscape:collect="always"
       xlink:href="#linearGradient4076"
       id="linearGradient5544"
       gradientUnits="userSpaceOnUse"
       x1="755.45844"
       y1="649.07892"
       x2="903.08154"
       y2="649.07892" />
    <linearGradient
       inkscape:collect="always"
       xlink:href="#linearGradient4076"
       id="linearGradient5546"
       gradientUnits="userSpaceOnUse"
       x1="748.07941"
       y1="649.07892"
       x2="910.46057"
       y2="649.07892" />
    <linearGradient
       inkscape:collect="always"
       xlink:href="#linearGradient4076"
       id="linearGradient5548"
       gradientUnits="userSpaceOnUse"
       x1="739.37805"
       y1="649.07892"
       x2="919.16193"
       y2="649.07892" />
    <linearGradient
       inkscape:collect="always"
       xlink:href="#linearGradient4076"
       id="linearGradient5550"
       gradientUnits="userSpaceOnUse"
       x1="738.26996"
       y1="649.07892"
       x2="920.27002"
       y2="649.07892" />
    <linearGradient
       inkscape:collect="always"
       xlink:href="#linearGradient4076"
       id="linearGradient5552"
       gradientUnits="userSpaceOnUse"
       x1="814.19092"
       y1="649.07892"
       x2="844.34906"
       y2="649.07892" />
    <linearGradient
       inkscape:collect="always"
       xlink:href="#linearGradient4076"
       id="linearGradient5554"
       gradientUnits="userSpaceOnUse"
       x1="800.45844"
       y1="649.07892"
       x2="858.08154"
       y2="649.07892" />
    <linearGradient
       inkscape:collect="always"
       xlink:href="#linearGradient4076"
       id="linearGradient5556"
       gradientUnits="userSpaceOnUse"
       x1="787.41083"
       y1="649.07892"
       x2="871.12915"
       y2="649.07892" />
    <linearGradient
       inkscape:collect="always"
       xlink:href="#linearGradient4076"
       id="linearGradient5558"
       gradientUnits="userSpaceOnUse"
       x1="775.36932"
       y1="649.07892"
       x2="883.17065"
       y2="649.07892" />
    <linearGradient
       inkscape:collect="always"
       xlink:href="#linearGradient4076"
       id="linearGradient5560"
       gradientUnits="userSpaceOnUse"
       x1="764.63037"
       y1="649.07892"
       x2="893.90961"
       y2="649.07892" />
    <linearGradient
       inkscape:collect="always"
       xlink:href="#linearGradient4076"
       id="linearGradient5562"
       gradientUnits="userSpaceOnUse"
       x1="755.45844"
       y1="649.07892"
       x2="903.08154"
       y2="649.07892" />
    <linearGradient
       inkscape:collect="always"
       xlink:href="#linearGradient4076"
       id="linearGradient5564"
       gradientUnits="userSpaceOnUse"
       x1="748.07941"
       y1="649.07892"
       x2="910.46057"
       y2="649.07892" />
    <linearGradient
       inkscape:collect="always"
       xlink:href="#linearGradient4076"
       id="linearGradient5566"
       gradientUnits="userSpaceOnUse"
       x1="742.67487"
       y1="649.07892"
       x2="915.86511"
       y2="649.07892" />
    <linearGradient
       inkscape:collect="always"
       xlink:href="#linearGradient4076"
       id="linearGradient5568"
       gradientUnits="userSpaceOnUse"
       x1="739.37805"
       y1="649.07892"
       x2="919.16193"
       y2="649.07892" />
    <linearGradient
       inkscape:collect="always"
       xlink:href="#linearGradient4076"
       id="linearGradient5570"
       gradientUnits="userSpaceOnUse"
       x1="119.86551"
       y1="382.36218"
       x2="140.13449"
       y2="382.36218" />
    <linearGradient
       inkscape:collect="always"
       xlink:href="#linearGradient4076"
       id="linearGradient5572"
       gradientUnits="userSpaceOnUse"
       gradientTransform="matrix(5.0896185,0,0,5.0896185,167.61959,-1296.9988)"
       x1="119.80352"
       y1="382.36218"
       x2="140.19649"
       y2="382.36218" />
    <linearGradient
       inkscape:collect="always"
       xlink:href="#linearGradient4076"
       id="linearGradient20871"
       gradientUnits="userSpaceOnUse"
       x1="-20.435808"
       y1="312.36218"
       x2="80.435806"
       y2="312.36218" />
    <linearGradient
       inkscape:collect="always"
       xlink:href="#linearGradient4076"
       id="linearGradient20906"
       gradientUnits="userSpaceOnUse"
       x1="-20.435808"
       y1="312.36218"
       x2="80.435806"
       y2="312.36218" />
    <linearGradient
       inkscape:collect="always"
       xlink:href="#linearGradient4076"
       id="linearGradient20908"
       gradientUnits="userSpaceOnUse"
       x1="-20.435808"
       y1="312.36218"
       x2="80.435806"
       y2="312.36218" />
    <linearGradient
       inkscape:collect="always"
       xlink:href="#linearGradient4076"
       id="linearGradient20910"
       gradientUnits="userSpaceOnUse"
       x1="119.88889"
       y1="382.36218"
       x2="140.11111"
       y2="382.36218" />
    <linearGradient
       inkscape:collect="always"
       xlink:href="#linearGradient4076"
       id="linearGradient20912"
       gradientUnits="userSpaceOnUse"
       x1="742.67487"
       y1="649.07892"
       x2="915.86511"
       y2="649.07892" />
    <linearGradient
       inkscape:collect="always"
       xlink:href="#linearGradient4076"
       id="linearGradient20914"
       gradientUnits="userSpaceOnUse"
       x1="828.27002"
       y1="649.07892"
       x2="830.27002"
       y2="649.07892" />
    <linearGradient
       inkscape:collect="always"
       xlink:href="#linearGradient4076"
       id="linearGradient20916"
       gradientUnits="userSpaceOnUse"
       x1="814.19092"
       y1="649.07892"
       x2="844.34906"
       y2="649.07892" />
    <linearGradient
       inkscape:collect="always"
       xlink:href="#linearGradient4076"
       id="linearGradient20918"
       gradientUnits="userSpaceOnUse"
       x1="800.45844"
       y1="649.07892"
       x2="858.08154"
       y2="649.07892" />
    <linearGradient
       inkscape:collect="always"
       xlink:href="#linearGradient4076"
       id="linearGradient20920"
       gradientUnits="userSpaceOnUse"
       x1="787.41083"
       y1="649.07892"
       x2="871.12915"
       y2="649.07892" />
    <linearGradient
       inkscape:collect="always"
       xlink:href="#linearGradient4076"
       id="linearGradient20922"
       gradientUnits="userSpaceOnUse"
       x1="775.36932"
       y1="649.07892"
       x2="883.17065"
       y2="649.07892" />
    <linearGradient
       inkscape:collect="always"
       xlink:href="#linearGradient4076"
       id="linearGradient20924"
       gradientUnits="userSpaceOnUse"
       x1="764.63037"
       y1="649.07892"
       x2="893.90961"
       y2="649.07892" />
    <linearGradient
       inkscape:collect="always"
       xlink:href="#linearGradient4076"
       id="linearGradient20926"
       gradientUnits="userSpaceOnUse"
       x1="755.45844"
       y1="649.07892"
       x2="903.08154"
       y2="649.07892" />
    <linearGradient
       inkscape:collect="always"
       xlink:href="#linearGradient4076"
       id="linearGradient20928"
       gradientUnits="userSpaceOnUse"
       x1="748.07941"
       y1="649.07892"
       x2="910.46057"
       y2="649.07892" />
    <linearGradient
       inkscape:collect="always"
       xlink:href="#linearGradient4076"
       id="linearGradient20930"
       gradientUnits="userSpaceOnUse"
       x1="739.37805"
       y1="649.07892"
       x2="919.16193"
       y2="649.07892" />
    <linearGradient
       inkscape:collect="always"
       xlink:href="#linearGradient4076"
       id="linearGradient20932"
       gradientUnits="userSpaceOnUse"
       x1="738.26996"
       y1="649.07892"
       x2="920.27002"
       y2="649.07892" />
    <linearGradient
       inkscape:collect="always"
       xlink:href="#linearGradient4076"
       id="linearGradient20934"
       gradientUnits="userSpaceOnUse"
       x1="814.19092"
       y1="649.07892"
       x2="844.34906"
       y2="649.07892" />
    <linearGradient
       inkscape:collect="always"
       xlink:href="#linearGradient4076"
       id="linearGradient20936"
       gradientUnits="userSpaceOnUse"
       x1="800.45844"
       y1="649.07892"
       x2="858.08154"
       y2="649.07892" />
    <linearGradient
       inkscape:collect="always"
       xlink:href="#linearGradient4076"
       id="linearGradient20938"
       gradientUnits="userSpaceOnUse"
       x1="787.41083"
       y1="649.07892"
       x2="871.12915"
       y2="649.07892" />
    <linearGradient
       inkscape:collect="always"
       xlink:href="#linearGradient4076"
       id="linearGradient20940"
       gradientUnits="userSpaceOnUse"
       x1="775.36932"
       y1="649.07892"
       x2="883.17065"
       y2="649.07892" />
    <linearGradient
       inkscape:collect="always"
       xlink:href="#linearGradient4076"
       id="linearGradient20942"
       gradientUnits="userSpaceOnUse"
       x1="764.63037"
       y1="649.07892"
       x2="893.90961"
       y2="649.07892" />
    <linearGradient
       inkscape:collect="always"
       xlink:href="#linearGradient4076"
       id="linearGradient20944"
       gradientUnits="userSpaceOnUse"
       x1="755.45844"
       y1="649.07892"
       x2="903.08154"
       y2="649.07892" />
    <linearGradient
       inkscape:collect="always"
       xlink:href="#linearGradient4076"
       id="linearGradient20946"
       gradientUnits="userSpaceOnUse"
       x1="748.07941"
       y1="649.07892"
       x2="910.46057"
       y2="649.07892" />
    <linearGradient
       inkscape:collect="always"
       xlink:href="#linearGradient4076"
       id="linearGradient20948"
       gradientUnits="userSpaceOnUse"
       x1="742.67487"
       y1="649.07892"
       x2="915.86511"
       y2="649.07892" />
    <linearGradient
       inkscape:collect="always"
       xlink:href="#linearGradient4076"
       id="linearGradient20950"
       gradientUnits="userSpaceOnUse"
       x1="739.37805"
       y1="649.07892"
       x2="919.16193"
       y2="649.07892" />
    <linearGradient
       inkscape:collect="always"
       xlink:href="#linearGradient4076"
       id="linearGradient20952"
       gradientUnits="userSpaceOnUse"
       x1="119.86551"
       y1="382.36218"
       x2="140.13449"
       y2="382.36218" />
    <linearGradient
       inkscape:collect="always"
       xlink:href="#linearGradient4076"
       id="linearGradient20954"
       gradientUnits="userSpaceOnUse"
       gradientTransform="matrix(5.0896185,0,0,5.0896185,167.61959,-1296.9988)"
       x1="119.80352"
       y1="382.36218"
       x2="140.19649"
       y2="382.36218" />
  </defs>
  <sodipodi:namedview
     id="base"
     pagecolor="#ffffff"
     bordercolor="#666666"
     borderopacity="1.0"
     inkscape:pageopacity="0.0"
     inkscape:pageshadow="2"
     inkscape:zoom="0.58696728"
     inkscape:cx="104.49058"
     inkscape:cy="69.580861"
     inkscape:document-units="px"
     inkscape:current-layer="layer1"
     showgrid="false"
     inkscape:snap-bbox="false"
     inkscape:snap-bbox-midpoints="true"
     inkscape:window-width="1280"
     inkscape:window-height="738"
     inkscape:window-x="-8"
     inkscape:window-y="-8"
     inkscape:window-maximized="1"
     showguides="true"
     inkscape:guide-bbox="true"
     fit-margin-top="0"
     fit-margin-left="0"
     fit-margin-right="0"
     fit-margin-bottom="0">
    <inkscape:grid
       type="xygrid"
       id="grid3065"
       empspacing="5"
       visible="true"
       enabled="true"
       snapvisiblegridlinesonly="true" />
  </sodipodi:namedview>
  <metadata
     id="metadata3051">
    <rdf:RDF>
      <cc:Work
         rdf:about="">
        <dc:format>image/svg+xml</dc:format>
        <dc:type
           rdf:resource="http://purl.org/dc/dcmitype/StillImage" />
        <dc:title />
      </cc:Work>
    </rdf:RDF>
  </metadata>
  <g
     inkscape:label="Layer 1"
     inkscape:groupmode="layer"
     id="layer1"
     transform="translate(-205.05158,-387.99413)">
    <g
       id="g5491"
       transform="translate(-501.82342,-143.37811)">
      <g
         id="g20873">
        <path
           id="path3964"
           style="fill:#ececec;stroke:#cccccc;stroke-width:2;stroke-linecap:butt;stroke-linejoin:round;stroke-opacity:1"
           d="m 781.10706,643.82887 c -49.97645,9.32413 -95.54012,35.10858 -61.25131,26.47637 0,0 168.31565,-38.64896 171.08184,-38.64896 l 0,6 c -2.76619,0 -171.08184,38.64896 -171.08184,38.64896 -34.28881,8.63221 11.27486,-17.15224 61.25131,-26.47637"
           inkscape:connector-curvature="0"
           sodipodi:nodetypes="cccccc" />
        <path
           sodipodi:type="star"
           style="fill:url(#linearGradient20906);fill-opacity:1;stroke:#988229;stroke-width:0.88314074;stroke-linecap:round;stroke-linejoin:round;stroke-miterlimit:4;stroke-opacity:1;stroke-dasharray:none"
           id="path20867"
           sodipodi:sides="40"
           sodipodi:cx="30"
           sodipodi:cy="312.36218"
           sodipodi:r1="50"
           sodipodi:r2="44.5"
           sodipodi:arg1="0.92729522"
           sodipodi:arg2="1.005835"
           inkscape:flatsided="false"
           inkscape:rounded="0"
           inkscape:randomized="0"
           d="m 60,352.36218 -6.17545,-2.41488 -0.451278,6.61545 -5.721649,-3.35121 -1.480607,6.46341 -5.126961,-4.20501 -2.473479,6.15222 -4.406031,-4.95528 -3.405445,5.68954 -3.57661,-5.58352 -4.253558,5.08676 -2.65912,-6.07429 -4.996934,4.35873 -1.676155,-6.41548 -5.6172691,3.52338 -0.6519163,-6.5987 -6.0992885,2.60126 0.3883741,-6.61944 -6.4311229,1.61509 1.4191015,-6.47719 L -10,342.36218 l 2.4148859,-6.17545 -6.6154539,-0.45128 3.351208,-5.72164 -6.463411,-1.48061 4.205012,-5.12696 -6.152217,-2.47348 4.955275,-4.40603 -5.689536,-3.40545 5.583522,-3.57661 -5.08676,-4.25356 6.074285,-2.65912 -4.35873,-4.99693 6.415478,-1.67615 -3.523374,-5.61727 6.5987015,-0.65192 -2.6012605,-6.09929 6.6194422,0.38838 -1.6150959,-6.43113 6.47719093,1.4191 L 7.9935487e-8,272.36218 6.1754497,274.77707 l 0.4512788,-6.61546 5.7216485,3.35121 1.480607,-6.46341 5.126961,4.20501 2.473479,-6.15221 4.406031,4.95527 3.405445,-5.68953 3.57661,5.58352 4.253558,-5.08676 2.65912,6.07428 4.996934,-4.35873 1.676155,6.41548 5.617269,-3.52337 0.651916,6.5987 6.099289,-2.60126 -0.388374,6.61944 6.431123,-1.6151 -1.419102,6.47719 L 70,282.36218 l -2.414886,6.17545 6.615454,0.45128 -3.351208,5.72165 6.463411,1.48061 -4.205012,5.12696 6.152217,2.47348 -4.955275,4.40603 5.689536,3.40544 -5.583522,3.57661 5.08676,4.25356 -6.074285,2.65912 4.35873,4.99693 -6.415478,1.67616 3.523374,5.61727 -6.598702,0.65192 2.601261,6.09928 -6.619442,-0.38837 1.615096,6.43112 -6.477191,-1.4191 z"
           inkscape:transform-center-x="0.49263885"
           inkscape:transform-center-y="-9.5573857"
           transform="matrix(2.1001044,0,0,2.1001044,766.12615,-9.6441025)" />
        <path
           transform="matrix(2.2646447,0,0,2.2646447,761.15134,-61.78909)"
           inkscape:transform-center-y="-10.306206"
           inkscape:transform-center-x="0.53123985"
           d="M 60,352.36218 46.595021,343.74459 46.171016,359.67495 36.085107,347.33677 30.7591,362.35642 24.97954,347.50539 15.272878,360.1441 14.365411,344.23395 1.2282491,353.25456 5.281704,337.84268 -10,342.36218 -1.3824038,328.9572 -17.312771,328.5332 -4.9745832,318.44729 -19.994237,313.12128 -5.1432068,307.34172 -17.78192,297.63506 -1.8717684,296.72759 -10.892375,283.59043 4.5195008,287.64389 7.9935487e-8,272.36218 13.404979,280.97978 l 0.424005,-15.93037 10.085909,12.33819 5.326007,-15.01965 5.77956,14.85103 9.706662,-12.63872 0.907467,15.91015 13.137162,-9.0206 -4.053455,15.41187 L 70,282.36218 l -8.617596,13.40498 15.930367,0.42401 -12.338188,10.08591 15.019654,5.326 -14.85103,5.77956 12.638713,9.70666 -15.910152,0.90747 9.020607,13.13716 -15.411876,-4.05345 z"
           inkscape:randomized="0"
           inkscape:rounded="0"
           inkscape:flatsided="false"
           sodipodi:arg2="1.0843749"
           sodipodi:arg1="0.92729522"
           sodipodi:r2="35.5"
           sodipodi:r1="50"
           sodipodi:cy="312.36218"
           sodipodi:cx="30"
           sodipodi:sides="20"
           id="path3968"
           style="fill:url(#linearGradient20908);fill-opacity:1;stroke:#988229;stroke-width:0.88314074;stroke-linecap:round;stroke-linejoin:round;stroke-miterlimit:4;stroke-opacity:1;stroke-dasharray:none"
           sodipodi:type="star" />
        <path
           sodipodi:type="arc"
           style="fill:url(#linearGradient20910);fill-opacity:1;stroke:#988229;stroke-width:0.22222222;stroke-linejoin:round;stroke-opacity:1"
           id="path3970"
           sodipodi:cx="130"
           sodipodi:cy="382.36218"
           sodipodi:rx="10"
           sodipodi:ry="10"
           d="m 140,382.36218 c 0,5.52285 -4.47715,10 -10,10 -5.52285,0 -10,-4.47715 -10,-10 0,-5.52284 4.47715,-10 10,-10 5.52285,0 10,4.47716 10,10 z"
           transform="matrix(9,0,0,9,-340.73001,-2792.1808)" />
        <path
           inkscape:connector-curvature="0"
           id="path3972"
           d="M 914.86509,676.89043 743.67489,621.26739"
           style="fill:url(#linearGradient20912);fill-opacity:1;stroke:#988229;stroke-width:2;stroke-linecap:butt;stroke-linejoin:round;stroke-opacity:1" />
        <path
           inkscape:connector-curvature="0"
           id="path3974"
           d="m 829.26999,739.07891 0,-180"
           style="fill:url(#linearGradient20914);fill-opacity:1;stroke:#988229;stroke-width:2;stroke-linecap:butt;stroke-linejoin:round;stroke-opacity:1" />
        <path
           style="fill:url(#linearGradient20916);fill-opacity:1;stroke:#988229;stroke-width:2;stroke-linecap:butt;stroke-linejoin:round;stroke-opacity:1"
           d="m 843.34909,737.97086 -28.1582,-177.7839"
           id="path3976"
           inkscape:connector-curvature="0" />
        <path
           inkscape:connector-curvature="0"
           id="path3978"
           d="M 857.08152,734.674 801.45846,563.48382"
           style="fill:url(#linearGradient20918);fill-opacity:1;stroke:#988229;stroke-width:2;stroke-linecap:butt;stroke-linejoin:round;stroke-opacity:1" />
        <path
           style="fill:url(#linearGradient20920);fill-opacity:1;stroke:#988229;stroke-width:2;stroke-linecap:butt;stroke-linejoin:round;stroke-opacity:1"
           d="M 870.12914,729.2695 788.41084,568.88832"
           id="path3980"
           inkscape:connector-curvature="0" />
        <path
           inkscape:connector-curvature="0"
           id="path3982"
           d="M 882.17067,721.89044 776.36931,576.26738"
           style="fill:url(#linearGradient20922);fill-opacity:1;stroke:#988229;stroke-width:2;stroke-linecap:butt;stroke-linejoin:round;stroke-opacity:1" />
        <path
           style="fill:url(#linearGradient20924);fill-opacity:1;stroke:#988229;stroke-width:2;stroke-linecap:butt;stroke-linejoin:round;stroke-opacity:1"
           d="M 892.90961,712.71852 765.63037,585.4393"
           id="path3984"
           inkscape:connector-curvature="0" />
        <path
           inkscape:connector-curvature="0"
           id="path3986"
           d="M 902.08153,701.97958 756.45845,596.17824"
           style="fill:url(#linearGradient20926);fill-opacity:1;stroke:#988229;stroke-width:2;stroke-linecap:butt;stroke-linejoin:round;stroke-opacity:1" />
        <path
           style="fill:url(#linearGradient20928);fill-opacity:1;stroke:#988229;stroke-width:2;stroke-linecap:butt;stroke-linejoin:round;stroke-opacity:1"
           d="M 909.46059,689.93805 749.07939,608.21977"
           id="path3988"
           inkscape:connector-curvature="0" />
        <path
           style="fill:url(#linearGradient20930);fill-opacity:1;stroke:#988229;stroke-width:2;stroke-linecap:butt;stroke-linejoin:round;stroke-opacity:1"
           d="M 918.16195,663.158 740.37803,634.99982"
           id="path3990"
           inkscape:connector-curvature="0" />
        <path
           inkscape:connector-curvature="0"
           id="path3992"
           d="m 919.27,649.0789 -180.00002,2e-5"
           style="fill:url(#linearGradient20932);fill-opacity:1;stroke:#988229;stroke-width:2;stroke-linecap:butt;stroke-linejoin:round;stroke-opacity:1" />
        <path
           style="fill:url(#linearGradient20934);fill-opacity:1;stroke:#988229;stroke-width:2;stroke-linecap:butt;stroke-linejoin:round;stroke-opacity:1"
           d="m 843.34909,560.18696 -28.1582,177.7839"
           id="path3994"
           inkscape:connector-curvature="0" />
        <path
           inkscape:connector-curvature="0"
           id="path3996"
           d="M 857.08152,563.48382 801.45846,734.674"
           style="fill:url(#linearGradient20936);fill-opacity:1;stroke:#988229;stroke-width:2;stroke-linecap:butt;stroke-linejoin:round;stroke-opacity:1" />
        <path
           style="fill:url(#linearGradient20938);fill-opacity:1;stroke:#988229;stroke-width:2;stroke-linecap:butt;stroke-linejoin:round;stroke-opacity:1"
           d="M 870.12914,568.88832 788.41084,729.2695"
           id="path3998"
           inkscape:connector-curvature="0" />
        <path
           inkscape:connector-curvature="0"
           id="path4000"
           d="M 882.17067,576.26738 776.36931,721.89044"
           style="fill:url(#linearGradient20940);fill-opacity:1;stroke:#988229;stroke-width:2;stroke-linecap:butt;stroke-linejoin:round;stroke-opacity:1" />
        <path
           style="fill:url(#linearGradient20942);fill-opacity:1;stroke:#988229;stroke-width:2;stroke-linecap:butt;stroke-linejoin:round;stroke-opacity:1"
           d="M 892.90961,585.4393 765.63037,712.71852"
           id="path4002"
           inkscape:connector-curvature="0" />
        <path
           inkscape:connector-curvature="0"
           id="path4004"
           d="M 902.08153,596.17824 756.45845,701.97958"
           style="fill:url(#linearGradient20944);fill-opacity:1;stroke:#988229;stroke-width:2;stroke-linecap:butt;stroke-linejoin:round;stroke-opacity:1" />
        <path
           style="fill:url(#linearGradient20946);fill-opacity:1;stroke:#988229;stroke-width:2;stroke-linecap:butt;stroke-linejoin:round;stroke-opacity:1"
           d="m 909.46059,608.21977 -160.3812,81.71828"
           id="path4006"
           inkscape:connector-curvature="0" />
        <path
           inkscape:connector-curvature="0"
           id="path4008"
           d="m 914.86509,621.26739 -171.1902,55.62304"
           style="fill:url(#linearGradient20948);fill-opacity:1;stroke:#988229;stroke-width:2;stroke-linecap:butt;stroke-linejoin:round;stroke-opacity:1" />
        <path
           style="fill:url(#linearGradient20950);fill-opacity:1;stroke:#988229;stroke-width:2;stroke-linecap:butt;stroke-linejoin:round;stroke-opacity:1"
           d="M 918.16195,634.99982 740.37803,663.158"
           id="path4010"
           inkscape:connector-curvature="0" />
        <path
           transform="matrix(7.4356261,0,0,7.4356261,-137.3614,-2194.0234)"
           d="m 140,382.36218 c 0,5.52285 -4.47715,10 -10,10 -5.52285,0 -10,-4.47715 -10,-10 0,-5.52284 4.47715,-10 10,-10 5.52285,0 10,4.47716 10,10 z"
           sodipodi:ry="10"
           sodipodi:rx="10"
           sodipodi:cy="382.36218"
           sodipodi:cx="130"
           id="path4012"
           style="fill:url(#linearGradient20952);fill-opacity:1;stroke:#988229;stroke-width:0.26897532;stroke-linejoin:round;stroke-opacity:1"
           sodipodi:type="arc" />
        <path
           inkscape:connector-curvature="0"
           style="fill:url(#linearGradient20954);fill-opacity:1;stroke:#988229;stroke-width:2;stroke-linejoin:round;stroke-opacity:1"
           d="m 829.28125,598.1875 c -28.10919,0 -50.90625,22.79706 -50.90625,50.90625 0,28.10919 22.79706,50.875 50.90625,50.875 28.10919,0 50.875,-22.76581 50.875,-50.875 0,-28.10919 -22.76581,-50.90625 -50.875,-50.90625 z m 0,5.6875 c 24.97288,0 45.21875,20.24587 45.21875,45.21875 0,24.97288 -20.24587,45.1875 -45.21875,45.1875 -24.97288,0 -45.21875,-20.21462 -45.21875,-45.1875 0,-24.97288 20.24587,-45.21875 45.21875,-45.21875 z"
           id="path4014" />
        <path
           style="opacity:0.25;fill:#000000;stroke:none"
           d="m 928.15625,616.90625 c 0,0 -146.63177,19.86646 -150.00624,20.29887 -3.37446,0.43241 -2.97489,1.01895 0.11743,1.46438 3.09232,0.44544 66.07631,9.518 66.07631,9.518 -30.19486,6.70893 -79.22451,17.9116 -114,25.875 l -9.03125,7.375 c -0.23321,0.18674 -0.37517,0.48249 -0.375,0.78125 31.95724,-7.32002 91.97719,-21.047 125.03125,-28.375 0,0 -43.28659,31.10375 -46.80375,33.52851 -3.51716,2.42475 -1.71649,2.01925 1.25729,0.66079 C 803.39606,686.67459 932.25,627.8125 932.25,627.8125 l 0.15625,-0.0937 c 0.69737,-0.42458 0.43282,-1.7253 -0.375,-1.84375 l -12.375,-2.03125 z"
           id="path5459"
           inkscape:connector-curvature="0"
           sodipodi:nodetypes="czzccccczzccccc" />
        <path
           sodipodi:nodetypes="ccccccc"
           inkscape:connector-curvature="0"
           d="m 707.87921,671.60234 c 1.68375,0.22116 2.56949,1.07112 11.97654,-1.2971 0,0 168.31565,-38.64896 171.08184,-38.64896 l 0,6 c -2.76619,0 -171.08184,38.64896 -171.08184,38.64896 -9.51854,2.39629 -11.97043,2.19747 -11.9942,0.37774 z"
           style="fill:#ececec;stroke:#cccccc;stroke-width:2;stroke-linecap:butt;stroke-linejoin:round;stroke-opacity:1"
           id="path5457" />
        <path
           style="fill:#ececec;stroke:#cccccc;stroke-width:2;stroke-linecap:butt;stroke-linejoin:round;stroke-opacity:1"
           d="m 846.2555,643.34745 -79.28571,-11.42857 195,-26.42858 -173.57143,79.28572 z"
           id="path3956"
           inkscape:connector-curvature="0" />
        <path
           inkscape:connector-curvature="0"
           id="path3958"
           d="M 853.60619,641.23011 789.12431,632.10046 944.95813,610.6065 810.93022,671.78821 z"
           style="fill:#ececec;stroke:#cccccc;stroke-width:2;stroke-linecap:butt;stroke-linejoin:round;stroke-opacity:1"
           sodipodi:nodetypes="ccccc" />
        <path
           sodipodi:nodetypes="ccccc"
           style="fill:#ececec;stroke:#cccccc;stroke-width:2;stroke-linecap:butt;stroke-linejoin:round;stroke-opacity:1"
           d="m 861.45132,639.10303 -50.67878,-6.85987 117.70939,-16.759 -93.953,42.89663 z"
           id="path3960"
           inkscape:connector-curvature="0" />
      </g>
    </g>
  </g>
</svg>
